HIERARCHY
ROOT Hips
{
	OFFSET 0.000000 121.760803 0.000000
	CHANNELS 6 Xposition Yposition Zposition Xrotation Yrotation Zrotation 
	JOINT Spine
	{
		OFFSET 0.072000 7.257294 -0.789700
		CHANNELS 3 Xrotation Yrotation Zrotation
		JOINT Spine1
		{
			OFFSET 0.000000 12.508769 -0.658067
			CHANNELS 3 Xrotation Yrotation Zrotation
			JOINT Spine1_split
			{
				OFFSET 0.000000 12.508769 -0.658067
				CHANNELS 3 Xrotation Yrotation Zrotation
				JOINT Spine2
				{
					OFFSET 0.000000 12.508769 -0.658067
					CHANNELS 3 Xrotation Yrotation Zrotation
					JOINT Neck
					{
						OFFSET 0.000000 14.033295 7.520400
						CHANNELS 3 Xrotation Yrotation Zrotation
						JOINT Head
						{
							OFFSET 0.000000 8.198502 5.703100
							CHANNELS 3 Xrotation Yrotation Zrotation
							JOINT HeadTop_End
							{
								OFFSET 0.000000 17.760803 13.332701
								CHANNELS 3 Xrotation Yrotation Zrotation
								End Site
								{
									OFFSET 0.000000 0.000000 0.000000
								}
							}
						}
					}
					JOINT LeftShoulder
					{
						OFFSET 6.292450 5.785301 -0.669000
						CHANNELS 3 Xrotation Yrotation Zrotation
						JOINT LeftShoulder_split
						{
							OFFSET 6.292450 5.785301 -0.669000
							CHANNELS 3 Xrotation Yrotation Zrotation
							JOINT LeftArm
							{
								OFFSET 13.907140 -6.093903 1.965100
								CHANNELS 3 Xrotation Yrotation Zrotation
								JOINT LeftForeArm
								{
									OFFSET 34.140198 0.000000 0.000000
									CHANNELS 3 Xrotation Yrotation Zrotation
									JOINT LeftHand
									{
										OFFSET 40.960209 0.000000 0.000000
										CHANNELS 3 Xrotation Yrotation Zrotation
										JOINT LeftHandThumb1
										{
											OFFSET 10.006996 -7.170425 9.573125
											CHANNELS 3 Xrotation Yrotation Zrotation
											JOINT LeftHandThumb2
											{
												OFFSET 1.835007 -1.059448 1.059443
												CHANNELS 3 Xrotation Yrotation Zrotation
												JOINT LeftHandThumb3
												{
													OFFSET 2.112267 -1.219513 1.219518
													CHANNELS 3 Xrotation Yrotation Zrotation
													JOINT LeftHandThumb4
													{
														OFFSET 4.843811 -2.796570 2.796576
														CHANNELS 3 Xrotation Yrotation Zrotation
														End Site
														{
															OFFSET 0.000000 0.000000 0.000000
														}
													}
												}
											}
										}
										JOINT LeftHandIndex1
										{
											OFFSET 18.389847 -0.922348 4.596882
											CHANNELS 3 Xrotation Yrotation Zrotation
											JOINT LeftHandIndex2
											{
												OFFSET 4.711273 0.000000 0.000000
												CHANNELS 3 Xrotation Yrotation Zrotation
												JOINT LeftHandIndex3
												{
													OFFSET 2.886131 0.000000 0.000000
													CHANNELS 3 Xrotation Yrotation Zrotation
													JOINT LeftHandIndex4
													{
														OFFSET 6.145912 0.000000 0.000000
														CHANNELS 3 Xrotation Yrotation Zrotation
														End Site
														{
															OFFSET 0.000000 0.000000 0.000000
														}
													}
												}
											}
										}
										JOINT LeftHandMiddle1
										{
											OFFSET 18.013008 0.000000 0.000000
											CHANNELS 3 Xrotation Yrotation Zrotation
											JOINT LeftHandMiddle2
											{
												OFFSET 4.946693 0.000000 0.000000
												CHANNELS 3 Xrotation Yrotation Zrotation
												JOINT LeftHandMiddle3
												{
													OFFSET 3.342232 0.000000 0.000000
													CHANNELS 3 Xrotation Yrotation Zrotation
													JOINT LeftHandMiddle4
													{
														OFFSET 4.461754 0.000000 0.000000
														CHANNELS 3 Xrotation Yrotation Zrotation
														End Site
														{
															OFFSET 0.000000 0.000000 0.000000
														}
													}
												}
											}
										}
										JOINT LeftHandRing1
										{
											OFFSET 15.849892 -0.102921 -4.126150
											CHANNELS 3 Xrotation Yrotation Zrotation
											JOINT LeftHandRing2
											{
												OFFSET 3.527054 0.000000 0.000000
												CHANNELS 3 Xrotation Yrotation Zrotation
												JOINT LeftHandRing3
												{
													OFFSET 2.961098 0.000000 0.000000
													CHANNELS 3 Xrotation Yrotation Zrotation
													JOINT LeftHandRing4
													{
														OFFSET 4.927200 0.000000 0.000000
														CHANNELS 3 Xrotation Yrotation Zrotation
														End Site
														{
															OFFSET 0.000000 0.000000 0.000000
														}
													}
												}
											}
										}
										JOINT LeftHandPinky1
										{
											OFFSET 12.791824 -0.832031 -6.799156
											CHANNELS 3 Xrotation Yrotation Zrotation
											JOINT LeftHandPinky2
											{
												OFFSET 3.327133 0.000000 0.000000
												CHANNELS 3 Xrotation Yrotation Zrotation
												JOINT LeftHandPinky3
												{
													OFFSET 3.014900 0.000000 0.000000
													CHANNELS 3 Xrotation Yrotation Zrotation
													JOINT LeftHandPinky4
													{
														OFFSET 5.847786 0.000000 0.000000
														CHANNELS 3 Xrotation Yrotation Zrotation
														End Site
														{
															OFFSET 0.000000 0.000000 0.000000
														}
													}
												}
											}
										}
									}
								}
							}
						}
					}
					JOINT RightShoulder
					{
						OFFSET -6.292450 5.785301 -0.669000
						CHANNELS 3 Xrotation Yrotation Zrotation
						JOINT RightShoulder_split
						{
							OFFSET -6.292450 5.785301 -0.669000
							CHANNELS 3 Xrotation Yrotation Zrotation
							JOINT RightArm
							{
								OFFSET -13.907140 -6.093903 1.965100
								CHANNELS 3 Xrotation Yrotation Zrotation
								JOINT RightForeArm
								{
									OFFSET -34.140198 0.000000 0.000000
									CHANNELS 3 Xrotation Yrotation Zrotation
									JOINT RightHand
									{
										OFFSET -40.960209 0.000000 0.000000
										CHANNELS 3 Xrotation Yrotation Zrotation
										JOINT RightHandThumb1
										{
											OFFSET -10.007050 -7.170456 9.573117
											CHANNELS 3 Xrotation Yrotation Zrotation
											JOINT RightHandThumb2
											{
												OFFSET -1.835007 -1.059448 1.059443
												CHANNELS 3 Xrotation Yrotation Zrotation
												JOINT RightHandThumb3
												{
													OFFSET -2.112267 -1.219513 1.219518
													CHANNELS 3 Xrotation Yrotation Zrotation
													JOINT RightHandThumb4
													{
														OFFSET -4.843834 -2.796585 2.796590
														CHANNELS 3 Xrotation Yrotation Zrotation
														End Site
														{
															OFFSET 0.000000 0.000000 0.000000
														}
													}
												}
											}
										}
										JOINT RightHandIndex1
										{
											OFFSET -18.389870 -0.922424 4.596786
											CHANNELS 3 Xrotation Yrotation Zrotation
											JOINT RightHandIndex2
											{
												OFFSET -4.711273 0.000000 0.000000
												CHANNELS 3 Xrotation Yrotation Zrotation
												JOINT RightHandIndex3
												{
													OFFSET -2.886131 0.000000 0.000000
													CHANNELS 3 Xrotation Yrotation Zrotation
													JOINT RightHandIndex4
													{
														OFFSET -6.145920 0.000000 0.000000
														CHANNELS 3 Xrotation Yrotation Zrotation
														End Site
														{
															OFFSET 0.000000 0.000000 0.000000
														}
													}
												}
											}
										}
										JOINT RightHandMiddle1
										{
											OFFSET -18.013008 0.000000 0.000000
											CHANNELS 3 Xrotation Yrotation Zrotation
											JOINT RightHandMiddle2
											{
												OFFSET -4.946693 0.000000 0.000000
												CHANNELS 3 Xrotation Yrotation Zrotation
												JOINT RightHandMiddle3
												{
													OFFSET -3.342232 0.000000 0.000000
													CHANNELS 3 Xrotation Yrotation Zrotation
													JOINT RightHandMiddle4
													{
														OFFSET -4.461754 0.000000 0.000000
														CHANNELS 3 Xrotation Yrotation Zrotation
														End Site
														{
															OFFSET 0.000000 0.000000 0.000000
														}
													}
												}
											}
										}
										JOINT RightHandRing1
										{
											OFFSET -15.849876 -0.102936 -4.126237
											CHANNELS 3 Xrotation Yrotation Zrotation
											JOINT RightHandRing2
											{
												OFFSET -3.527054 0.000000 0.000000
												CHANNELS 3 Xrotation Yrotation Zrotation
												JOINT RightHandRing3
												{
													OFFSET -2.961098 0.000000 0.000000
													CHANNELS 3 Xrotation Yrotation Zrotation
													JOINT RightHandRing4
													{
														OFFSET -4.927200 0.000000 0.000000
														CHANNELS 3 Xrotation Yrotation Zrotation
														End Site
														{
															OFFSET 0.000000 0.000000 0.000000
														}
													}
												}
											}
										}
										JOINT RightHandPinky1
										{
											OFFSET -12.791786 -0.832077 -6.799222
											CHANNELS 3 Xrotation Yrotation Zrotation
											JOINT RightHandPinky2
											{
												OFFSET -3.327133 0.000000 0.000000
												CHANNELS 3 Xrotation Yrotation Zrotation
												JOINT RightHandPinky3
												{
													OFFSET -3.014900 0.000000 0.000000
													CHANNELS 3 Xrotation Yrotation Zrotation
													JOINT RightHandPinky4
													{
														OFFSET -5.847786 0.000000 0.000000
														CHANNELS 3 Xrotation Yrotation Zrotation
														End Site
														{
															OFFSET 0.000000 0.000000 0.000000
														}
													}
												}
											}
										}
									}
								}
							}
						}
					}
				}
			}
		}
	}
	JOINT LeftUpLeg
	{
		OFFSET 13.026900 -6.336304 -1.092800
		CHANNELS 3 Xrotation Yrotation Zrotation
		JOINT LeftLeg
		{
			OFFSET 0.524474 -46.096886 9.782700
			CHANNELS 3 Xrotation Yrotation Zrotation
			JOINT LeftFoot
			{
				OFFSET -0.524474 -53.427422 -12.948200
				CHANNELS 3 Xrotation Yrotation Zrotation
				JOINT LeftToeBase
				{
					OFFSET 0.192200 -14.009700 16.364100
					CHANNELS 3 Xrotation Yrotation Zrotation
					JOINT LeftToe_End
					{
						OFFSET -1.784700 -0.561700 9.474800
						CHANNELS 3 Xrotation Yrotation Zrotation
						End Site
						{
							OFFSET 0.000000 0.000000 0.000000
						}
					}
				}
			}
		}
	}
	JOINT RightUpLeg
	{
		OFFSET -12.883000 -6.336304 -1.092800
		CHANNELS 3 Xrotation Yrotation Zrotation
		JOINT RightLeg
		{
			OFFSET -0.524587 -46.096825 9.782800
			CHANNELS 3 Xrotation Yrotation Zrotation
			JOINT RightFoot
			{
				OFFSET 0.524587 -53.427383 -12.948300
				CHANNELS 3 Xrotation Yrotation Zrotation
				JOINT RightToeBase
				{
					OFFSET -0.192200 -14.009700 16.364100
					CHANNELS 3 Xrotation Yrotation Zrotation
					JOINT RightToe_End
					{
						OFFSET 1.784700 -0.561700 9.474800
						CHANNELS 3 Xrotation Yrotation Zrotation
						End Site
						{
							OFFSET 0.000000 0.000000 0.000000
						}
					}
				}
			}
		}
	}
}
MOTION
Frames: 4
Frame Time: 0.016667
-0.681891 105.606560 7.221500 -12.958396 -1.286602 -5.388268 5.925569 -0.589434 3.014662 9.106088 -0.324704 -0.848842 0.000000 0.000000 0.000000 9.111606 -0.022998 -0.851798 15.434440 0.560290 0.855191 -3.243829 0.523975 4.960276 0.000001 -0.000000 -0.000000 0.689291 3.725265 -11.385279 0.000000 0.000000 0.000000 59.736930 -63.314679 -9.099193 0.000010 -20.467444 0.000025 -19.310944 9.265480 -7.550692 21.734270 5.841477 -2.497395 -16.162772 18.936375 19.036147 -9.576512 8.451322 10.577061 -0.000005 0.000001 0.000001 0.152624 1.444570 -12.061574 0.086636 1.090998 -9.079581 0.021682 0.547232 -4.539370 0.000001 -0.000001 0.000001 0.152215 1.442682 -12.045583 0.086932 1.092921 -9.095560 0.021685 0.547211 -4.539382 0.000001 -0.000001 0.000001 0.152624 1.444566 -12.061578 0.086638 1.091019 -9.079576 0.021688 0.547212 -4.539372 0.000000 0.000000 0.000000 0.985197 5.412795 -11.600978 0.078385 -2.964046 -9.583897 0.021691 0.547216 -4.539377 -0.000001 -0.000000 0.000002 1.381296 0.020058 11.778359 0.000000 0.000000 0.000000 9.839209 40.445324 56.843245 -0.000009 26.830955 0.000030 35.425715 -10.440547 11.800210 -0.389745 -6.638716 -15.665607 8.907263 -22.771349 0.157766 0.754320 -6.942796 -2.431190 -0.000001 -0.000001 0.000001 0.174547 -1.551257 12.839268 0.140302 -1.392637 11.506930 0.035169 -0.699828 5.752620 0.000000 -0.000001 0.000001 0.174541 -1.551242 12.839273 0.140309 -1.392662 11.506924 0.035160 -0.699820 5.752625 -0.000000 -0.000001 0.000001 0.174547 -1.551252 12.839272 0.140304 -1.392648 11.506927 0.035163 -0.699831 5.752621 0.000001 -0.000000 0.000000 0.174546 -1.551253 12.839269 0.140310 -1.392655 11.506932 0.035155 -0.699818 5.752621 0.000002 -0.000000 0.000001 -32.269939 20.439440 10.789523 41.347640 -8.766354 10.084855 0.663719 -8.295207 -0.234485 -1.018566 0.000002 0.000002 -0.000000 -0.000000 0.000000 -23.718143 -36.901825 -1.185792 38.835585 9.057808 -10.372442 -1.970512 7.900537 -6.147868 -0.000018 0.000002 -0.000002 0.000000 0.000000 -0.000000 
-0.685922 105.613914 7.227905 -12.943016 -1.245554 -5.387526 5.921643 -0.589532 3.018283 9.101769 -0.326363 -0.858133 0.000000 0.000000 0.000000 9.107326 -0.025738 -0.860711 15.423289 0.554960 0.870814 -3.284136 0.522453 4.912770 0.000001 0.000000 0.000000 0.689442 3.728123 -11.389585 0.000000 0.000000 0.000000 59.635481 -63.287085 -9.181460 0.000001 -20.479470 -0.000013 -19.271232 9.284317 -7.567687 21.734266 5.841479 -2.497395 -16.162770 18.936378 19.036147 -9.576519 8.451322 10.577061 -0.000001 -0.000004 -0.000002 0.152624 1.444570 -12.061571 0.086637 1.090998 -9.079583 0.021684 0.547232 -4.539367 -0.000002 -0.000000 -0.000001 0.152216 1.442682 -12.045583 0.086933 1.092921 -9.095561 0.021686 0.547212 -4.539382 0.000002 -0.000001 -0.000001 0.152621 1.444567 -12.061574 0.086636 1.091018 -9.079578 0.021683 0.547213 -4.539373 0.000001 0.000001 -0.000002 0.985192 5.412794 -11.600979 0.078382 -2.964047 -9.583895 0.021690 0.547216 -4.539374 -0.000001 -0.000000 0.000002 1.380292 0.014380 11.778445 0.000000 0.000000 0.000000 9.844072 40.462536 56.845322 0.000006 26.845934 0.000003 35.401168 -10.448983 11.800076 -0.389745 -6.638716 -15.665607 8.907263 -22.771349 0.157764 0.754318 -6.942792 -2.431193 -0.000001 -0.000001 -0.000001 0.174547 -1.551256 12.839269 0.140304 -1.392637 11.506933 0.035172 -0.699828 5.752618 0.000001 0.000001 -0.000001 0.174542 -1.551242 12.839275 0.140310 -1.392662 11.506926 0.035162 -0.699819 5.752623 0.000000 0.000000 0.000001 0.174547 -1.551251 12.839273 0.140303 -1.392647 11.506928 0.035167 -0.699832 5.752619 0.000001 0.000001 -0.000002 0.174547 -1.551252 12.839271 0.140306 -1.392655 11.506931 0.035156 -0.699817 5.752622 0.000001 -0.000001 -0.000001 -32.272541 20.422301 10.773532 41.333720 -8.768414 10.084380 0.671924 -8.302795 -0.226338 -1.025284 -0.000003 -0.000004 0.000000 -0.000000 0.000000 -23.719230 -36.933299 -1.194736 38.823144 9.058884 -10.371835 -1.977006 7.890887 -6.144030 -0.000018 -0.000000 -0.000002 0.000000 -0.000000 -0.000000 
-0.689950 105.620293 7.234432 -12.929262 -1.208514 -5.387634 5.918428 -0.589935 3.021520 9.098278 -0.328489 -0.866142 0.000000 0.000000 0.000000 9.103878 -0.028798 -0.868353 15.411979 0.550057 0.886042 -3.321175 0.521828 4.868124 0.000000 -0.000000 -0.000000 0.689443 3.729465 -11.390501 0.000000 0.000000 0.000000 59.511343 -63.261936 -9.286488 0.000011 -20.488098 0.000041 -19.229266 9.299536 -7.586341 21.734268 5.841479 -2.497394 -16.162774 18.936378 19.036145 -9.576512 8.451318 10.577061 -0.000002 -0.000002 -0.000000 0.152620 1.444570 -12.061576 0.086638 1.090998 -9.079585 0.021682 0.547231 -4.539368 0.000000 0.000000 -0.000003 0.152217 1.442682 -12.045582 0.086928 1.092920 -9.095559 0.021682 0.547211 -4.539379 -0.000004 0.000001 0.000000 0.152621 1.444567 -12.061576 0.086637 1.091019 -9.079575 0.021685 0.547213 -4.539375 -0.000001 0.000000 -0.000002 0.985194 5.412796 -11.600977 0.078380 -2.964046 -9.583899 0.021691 0.547216 -4.539376 0.000000 -0.000001 0.000000 1.379337 0.009007 11.778240 0.000000 0.000000 0.000000 9.848082 40.481169 56.846677 -0.000001 26.857871 -0.000010 35.377832 -10.457181 11.798780 -0.389747 -6.638716 -15.665607 8.907260 -22.771347 0.157760 0.754320 -6.942795 -2.431191 0.000001 -0.000001 0.000001 0.174546 -1.551256 12.839268 0.140301 -1.392636 11.506930 0.035170 -0.699829 5.752620 0.000001 -0.000000 -0.000004 0.174542 -1.551243 12.839274 0.140306 -1.392662 11.506922 0.035161 -0.699819 5.752624 0.000001 -0.000001 -0.000000 0.174547 -1.551252 12.839271 0.140303 -1.392647 11.506929 0.035163 -0.699831 5.752621 0.000000 -0.000000 0.000000 0.174546 -1.551252 12.839271 0.140308 -1.392654 11.506932 0.035155 -0.699819 5.752621 -0.000001 -0.000001 0.000001 -32.275335 20.406332 10.760289 41.322300 -8.769797 10.083997 0.678315 -8.310231 -0.218161 -1.031765 0.000003 -0.000001 -0.000000 -0.000000 0.000000 -23.720552 -36.969150 -1.205169 38.812328 9.059910 -10.371238 -1.983525 7.887609 -6.142680 -0.000018 0.000003 -0.000002 0.000000 0.000002 0.000000 
-0.694303 105.626572 7.241243 -12.916206 -1.172935 -5.388109 5.915530 -0.590600 3.024816 9.095248 -0.331065 -0.873291 0.000000 0.000000 0.000000 9.100892 -0.032251 -0.875140 15.400787 0.545104 0.901278 -3.355568 0.520872 4.823728 -0.000000 -0.000000 -0.000000 0.689394 3.730280 -11.390356 0.000000 0.000000 0.000000 59.372171 -63.239151 -9.406507 0.000006 -20.492453 0.000021 -19.183916 9.314109 -7.606349 21.734270 5.841480 -2.497395 -16.162772 18.936377 19.036147 -9.576514 8.451323 10.577063 0.000000 -0.000001 -0.000001 0.152625 1.444570 -12.061573 0.086633 1.090999 -9.079584 0.021682 0.547233 -4.539372 0.000001 -0.000001 0.000002 0.152214 1.442682 -12.045583 0.086928 1.092921 -9.095557 0.021685 0.547212 -4.539382 -0.000001 0.000000 0.000000 0.152623 1.444567 -12.061575 0.086639 1.091019 -9.079576 0.021688 0.547212 -4.539373 0.000002 -0.000000 0.000002 0.985194 5.412796 -11.600979 0.078382 -2.964046 -9.583898 0.021689 0.547216 -4.539378 0.000001 0.000000 -0.000002 1.378495 0.004378 11.777019 0.000000 0.000000 0.000000 9.850233 40.499538 56.848979 0.000002 26.868057 0.000011 35.355877 -10.464771 11.797776 -0.389745 -6.638717 -15.665604 8.907257 -22.771354 0.157761 0.754317 -6.942791 -2.431190 -0.000000 -0.000002 0.000000 0.174547 -1.551257 12.839267 0.140300 -1.392637 11.506931 0.035171 -0.699828 5.752620 0.000002 0.000000 -0.000000 0.174543 -1.551242 12.839274 0.140307 -1.392662 11.506924 0.035160 -0.699819 5.752621 0.000001 0.000001 -0.000001 0.174547 -1.551252 12.839272 0.140302 -1.392647 11.506928 0.035166 -0.699831 5.752614 -0.000000 0.000000 0.000002 0.174547 -1.551253 12.839269 0.140308 -1.392655 11.506930 0.035155 -0.699817 5.752619 0.000000 0.000000 -0.000000 -32.277869 20.391226 10.748520 41.311259 -8.771250 10.083515 0.684186 -8.317769 -0.210021 -1.038240 -0.000001 -0.000001 -0.000000 -0.000000 0.000000 -23.720504 -37.003656 -1.214121 38.801721 9.060872 -10.370642 -1.990227 7.883730 -6.141514 -0.000018 0.000002 -0.000002 0.000000 0.000000 0.000000 
